<svg preserveAspectRatio="none" overflow="visible" style="display: block;" width="24" height="24" viewBox="0 0 24 24" fill="none" xmlns="http://www.w3.org/2000/svg">
<g id="Icon/Energy/Breaker">
<path id="Vector" d="M19 5H5C3.89543 5 3 5.89543 3 7V17C3 18.1046 3.89543 19 5 19H19C20.1046 19 21 18.1046 21 17V7C21 5.89543 20.1046 5 19 5Z" stroke="#26343E" stroke-width="1.5" stroke-linecap="round" stroke-linejoin="round"/>
<path id="Vector_2" d="M7 12H10L14 8M14 12H17" stroke="#26343E" stroke-width="1.5" stroke-linecap="round" stroke-linejoin="round"/>
<path id="Vector_3" d="M6 13C6.55228 13 7 12.5523 7 12C7 11.4477 6.55228 11 6 11C5.44772 11 5 11.4477 5 12C5 12.5523 5.44772 13 6 13Z" stroke="#26343E" stroke-width="1.5" stroke-linecap="round" stroke-linejoin="round"/>
<path id="Vector_4" d="M18 13C18.5523 13 19 12.5523 19 12C19 11.4477 18.5523 11 18 11C17.4477 11 17 11.4477 17 12C17 12.5523 17.4477 13 18 13Z" stroke="#26343E" stroke-width="1.5" stroke-linecap="round" stroke-linejoin="round"/>
</g>
</svg>
